<?xml version="1.0" standalone="no"?>
<!DOCTYPE svg PUBLIC "-//W3C//DTD SVG 20010904//EN"
 "http://www.w3.org/TR/2001/REC-SVG-20010904/DTD/svg10.dtd">
<svg version="1.0" xmlns="http://www.w3.org/2000/svg"
 width="1275.000000pt" height="1651.000000pt" viewBox="0 0 1275.000000 1651.000000"
 preserveAspectRatio="xMidYMid meet">
<metadata>
Created by potrace 1.16, written by Peter Selinger 2001-2019
</metadata>
<g transform="translate(0.000000,1651.000000) scale(0.100000,-0.100000)"
fill="#000000" stroke="none">
<path d="M2360 15300 c0 -5 5 -10 10 -10 6 0 10 5 10 10 0 6 -4 10 -10 10 -5
0 -10 -4 -10 -10z"/>
<path d="M1212 15291 c-26 -16 -9 -53 28 -66 38 -13 45 -32 18 -48 -13 -9 -21
-7 -36 6 -21 19 -38 11 -21 -10 15 -18 74 -17 89 2 18 22 5 44 -35 61 -40 16
-47 44 -12 44 13 0 28 -5 35 -12 9 -9 12 -8 12 4 0 25 -50 37 -78 19z"/>
<path d="M1333 15220 l2 -55 38 0 37 -1 -1 56 c-1 53 -2 53 -8 15 -8 -48 -17
-65 -36 -65 -9 0 -17 15 -20 38 -11 66 -13 68 -12 12z"/>
<path d="M1440 15213 c0 -66 18 -71 22 -5 4 60 21 57 29 -5 5 -44 6 -45 7 -11
4 78 32 89 32 12 0 -24 5 -44 10 -44 11 0 13 80 2 96 -4 6 -28 11 -54 11 l-48
0 0 -54z"/>
<path d="M1570 15213 c0 -29 5 -53 10 -53 6 0 10 20 10 44 0 25 5 48 10 51 6
4 10 -13 10 -44 0 -28 5 -51 10 -51 6 0 10 20 10 44 0 25 5 48 10 51 6 4 10
-13 10 -44 0 -29 5 -51 11 -51 6 0 9 21 7 53 l-3 52 -47 1 -48 1 0 -54z"/>
<path d="M1710 15256 c-15 -19 -7 -20 20 -3 17 10 22 9 30 -3 5 -8 6 -16 2
-17 -4 -1 -19 -4 -34 -7 -22 -5 -28 -12 -28 -32 0 -29 25 -42 51 -25 12 7 19
7 19 1 0 -5 7 -10 16 -10 12 0 14 3 6 13 -6 7 -12 30 -14 52 -3 35 -7 40 -29
43 -14 2 -31 -4 -39 -12z m50 -66 c-6 -11 -17 -20 -25 -20 -8 0 -15 9 -15 20
0 15 7 20 25 20 23 0 24 -2 15 -20z"/>
<path d="M1834 15254 c3 -9 6 -33 6 -55 0 -21 5 -39 10 -39 6 0 10 18 10 40 0
28 5 42 19 49 10 6 21 7 25 4 3 -3 6 -1 6 5 0 16 -33 15 -48 0 -9 -9 -12 -9
-12 0 0 7 -5 12 -11 12 -6 0 -8 -7 -5 -16z"/>
<path d="M1950 15245 c5 -14 16 -39 25 -55 14 -28 14 -31 -6 -51 -19 -19 -19
-20 -2 -17 17 3 49 56 72 121 16 44 -5 31 -24 -15 l-17 -43 -21 43 c-23 45
-43 58 -27 17z"/>
<path d="M2210 15256 c-15 -19 -7 -20 20 -3 17 10 22 9 30 -3 5 -8 6 -16 2
-17 -4 -1 -19 -4 -34 -7 -22 -5 -28 -12 -28 -32 0 -29 25 -42 51 -25 12 7 19
7 19 1 0 -5 7 -10 16 -10 12 0 14 3 6 13 -6 7 -12 30 -14 52 -3 35 -7 40 -29
43 -14 2 -31 -4 -39 -12z m50 -66 c-6 -11 -17 -20 -25 -20 -8 0 -15 9 -15 20
0 15 7 20 25 20 23 0 24 -2 15 -20z"/>
<path d="M2343 15263 c13 -3 17 -15 17 -48 0 -37 -3 -44 -22 -48 -13 -2 2 -5
32 -5 42 -1 50 1 33 8 -19 8 -23 17 -23 55 0 43 -1 45 -27 44 -17 -1 -21 -3
-10 -6z"/>
<path d="M2110 15175 c0 -8 5 -15 10 -15 6 0 10 7 10 15 0 8 -4 15 -10 15 -5
0 -10 -7 -10 -15z"/>
</g>
</svg>
